<svg width="20" height="20" viewBox="0 0 20 20" fill="none" xmlns="http://www.w3.org/2000/svg">
<g clip-path="url(#clip0)">
<path d="M8.18735 0.317383C7.67047 0.317383 7.25278 0.729636 7.25278 1.24652V5.07174H8.57313V1.38236H18.685V8.52748H15.8106V9.59246H19.0708C19.5876 9.59246 19.9999 9.17478 19.9999 8.65789V1.24652C19.9999 0.729636 19.5876 0.317383 19.0708 0.317383H8.18735ZM3.18848 5.88134C2.67159 5.88134 2.25391 6.2936 2.25391 6.81048V14.2219C2.25391 14.7387 2.67159 15.1564 3.18848 15.1564H14.0719C14.5888 15.1564 15.001 14.7387 15.001 14.2219V12.9232V11.228V10.2336V9.59246V8.52748V6.88655V6.81048C15.001 6.2936 14.5888 5.88134 14.0719 5.88134H9.06758H8.57313H7.25278H6.78006H3.18848ZM3.57426 6.94632H13.6861V14.0914H3.57426V6.94632ZM15.8106 10.2336V11.228H17.783C17.783 10.6779 17.3388 10.2336 16.7887 10.2336H15.8106ZM5.47057 15.7976C4.92048 15.7976 4.48166 16.2418 4.48166 16.7919H12.7841C12.7841 16.2418 12.3399 15.7976 11.7898 15.7976H5.47057Z" fill="currentColor"/>
<path d="M4.7413 11.3399C4.61085 11.3428 4.48132 11.4305 4.38575 11.5961L0.079945 19.06C-0.113961 19.3961 0.0597113 19.6823 0.440723 19.6823H9.06018C9.49711 19.6823 9.59998 19.3744 9.41835 19.06L5.10731 11.5961C5.00506 11.4191 4.87176 11.3371 4.7413 11.3399ZM4.69425 13.1386C4.91497 13.1386 5.08908 13.2069 5.2145 13.3399C5.34242 13.4728 5.40534 13.65 5.40534 13.8732C5.40534 14.1792 5.34807 14.5961 5.23018 15.1229C5.09724 15.7299 5.02008 16.144 4.99751 16.3673C4.99248 16.5077 4.98694 16.6504 4.98443 16.7934C4.96937 16.984 4.9207 17.1012 4.83542 17.1464C4.80281 17.1664 4.76281 17.1777 4.71516 17.1777C4.59977 17.1777 4.52858 17.0864 4.50601 16.9058C4.50351 16.8883 4.50338 16.7542 4.5034 16.5058C4.5034 16.0493 4.40624 15.3952 4.2106 14.5399C4.13535 14.2063 4.09818 13.9864 4.09818 13.881C4.09818 13.6904 4.14686 13.5221 4.2472 13.3791C4.36007 13.2186 4.50864 13.1386 4.69425 13.1386H4.69425ZM4.69948 17.5725C4.85499 17.5725 4.98921 17.6182 5.10209 17.711C5.22248 17.8114 5.28247 17.9371 5.28248 18.0901C5.28247 18.2582 5.22824 18.3979 5.12039 18.5058C5.01504 18.6137 4.87799 18.6653 4.70994 18.6653C4.56947 18.6653 4.44666 18.6138 4.34131 18.5084C4.23597 18.4031 4.18445 18.2803 4.18445 18.1398C4.18445 17.9893 4.23303 17.8579 4.33086 17.745C4.42868 17.6297 4.55149 17.5725 4.69948 17.5725Z" fill="#F55C5C"/>
</g>
<defs>
<clipPath id="clip0">
<rect width="20" height="20" fill="white"/>
</clipPath>
</defs>
</svg>
