<svg width="20" height="20" viewBox="0 0 20 20" fill="none" xmlns="http://www.w3.org/2000/svg">
<path d="M11.5 9.5625C10.9746 9.5625 10.4611 9.40672 10.0243 9.11484C9.58745 8.82297 9.24699 8.40812 9.04595 7.92275C8.8449 7.43739 8.7923 6.90331 8.89479 6.38804C8.99728 5.87278 9.25027 5.39948 9.62175 5.028C9.99323 4.65652 10.4665 4.40353 10.9818 4.30104C11.4971 4.19855 12.0311 4.25115 12.5165 4.4522C13.0019 4.65324 13.4167 4.9937 13.7086 5.43052C14.0005 5.86734 14.1563 6.38089 14.1563 6.90625C14.1554 7.61049 13.8753 8.28565 13.3774 8.78362C12.8794 9.28159 12.2042 9.5617 11.5 9.5625ZM11.5 5.3125C11.1848 5.3125 10.8767 5.40597 10.6146 5.5811C10.3525 5.75622 10.1482 6.00513 10.0276 6.29635C9.90694 6.58757 9.87538 6.90802 9.93687 7.21718C9.99837 7.52633 10.1502 7.81031 10.373 8.0332C10.5959 8.25609 10.8799 8.40788 11.1891 8.46938C11.4982 8.53087 11.8187 8.49931 12.1099 8.37868C12.4011 8.25806 12.65 8.05378 12.8252 7.79169C13.0003 7.5296 13.0938 7.22147 13.0938 6.90625C13.0933 6.48371 12.9252 6.0786 12.6264 5.77981C12.3277 5.48103 11.9225 5.31297 11.5 5.3125Z" fill="currentColor"/>
<path d="M11.5 15.9375L7.01865 10.6523C6.9932 10.6219 6.83367 10.4124 6.83367 10.4124C6.06808 9.40402 5.65446 8.17232 5.65626 6.90625C5.65626 5.35639 6.27193 3.87001 7.36785 2.77409C8.46377 1.67818 9.95015 1.0625 11.5 1.0625C13.0499 1.0625 14.5362 1.67818 15.6322 2.77409C16.7281 3.87001 17.3438 5.35639 17.3438 6.90625C17.3457 8.1718 16.9323 9.40303 16.1671 10.4111L16.1663 10.4124C16.1663 10.4124 16.007 10.6219 15.9832 10.6501L11.5 15.9375ZM7.68165 9.77234C7.68165 9.77234 7.80564 9.93608 7.8339 9.97124L11.5 14.2948L15.1709 9.96513C15.1943 9.93581 15.3191 9.77086 15.3191 9.77086C15.9445 8.94693 16.2825 7.94066 16.2813 6.90625C16.2813 5.63818 15.7775 4.42205 14.8809 3.5254C13.9842 2.62874 12.7681 2.125 11.5 2.125C10.2319 2.125 9.01581 2.62874 8.11915 3.5254C7.22249 4.42205 6.71876 5.63818 6.71876 6.90625C6.71758 7.94122 7.05582 8.94802 7.68165 9.77234Z" fill="currentColor"/>
<path d="M4.99085 11.5225C4.85353 11.5254 4.71717 11.6146 4.61658 11.7829L0.0841526 19.3673C-0.119959 19.7088 0.062854 19.9996 0.463919 19.9996H9.53704C9.99696 19.9996 10.1052 19.6868 9.91405 19.3673L5.37612 11.7829C5.26848 11.603 5.12817 11.5196 4.99085 11.5225ZM4.94131 13.3502C5.17365 13.3502 5.35693 13.4197 5.48895 13.5548C5.6236 13.6899 5.68983 13.8699 5.68984 14.0967C5.68983 14.4077 5.62955 14.8313 5.50546 15.3665C5.36552 15.9834 5.28429 16.4042 5.26053 16.6311C5.25525 16.7738 5.24941 16.9188 5.24677 17.0641C5.23092 17.2578 5.17968 17.3768 5.08991 17.4227C5.05559 17.4431 5.01349 17.4546 4.96332 17.4546C4.84187 17.4546 4.76693 17.3618 4.74317 17.1783C4.74053 17.1605 4.7404 17.0242 4.74042 16.7719C4.74042 16.308 4.63815 15.6433 4.43221 14.7741C4.353 14.4352 4.31387 14.2117 4.31387 14.1047C4.31387 13.911 4.36512 13.7399 4.47073 13.5946C4.58954 13.4315 4.74593 13.3502 4.94131 13.3502H4.94131ZM4.94682 17.8557C5.11052 17.8557 5.2518 17.9022 5.37062 17.9965C5.49735 18.0985 5.5605 18.2263 5.5605 18.3817C5.5605 18.5525 5.50341 18.6945 5.38988 18.8041C5.27899 18.9137 5.13472 18.9662 4.95783 18.9662C4.80997 18.9662 4.6807 18.9138 4.56981 18.8068C4.45891 18.6997 4.40469 18.5749 4.40469 18.4322C4.40469 18.2793 4.45583 18.1458 4.5588 18.0311C4.66177 17.9138 4.79104 17.8557 4.94682 17.8557Z" fill="#E7D321"/>
</svg>
