<svg viewBox="0 0 18 18" xmlns="http://www.w3.org/2000/svg">
<path d="M1.9082 7.58656C1.9082 6.62813 2.09214 5.70843 2.46971 4.82745C2.84727 3.94647 3.35069 3.20103 3.98964 2.57175C4.62859 1.94248 5.38372 1.43907 6.25501 1.0615C7.12631 0.683941 8.04602 0.5 9.00444 0.5C9.96287 0.5 10.8826 0.683941 11.7636 1.0615C12.6349 1.43907 13.39 1.94248 14.0193 2.57175C14.6485 3.20103 15.1519 3.95615 15.5295 4.82745C15.9071 5.69875 16.091 6.61845 16.091 7.58656C16.091 9.1549 15.6263 10.549 14.6969 11.7882C13.7675 13.0177 12.5671 13.8599 11.1052 14.3149V17.5H7.00046V14.3536C5.50957 13.918 4.28007 13.0757 3.33132 11.8269C2.38258 10.578 1.9082 9.16458 1.9082 7.58656ZM3.46686 7.58656C3.46686 9.08713 4.009 10.3747 5.10296 11.4493C6.17756 12.5336 7.47483 13.0757 8.99476 13.0757C9.99192 13.0757 10.9213 12.8337 11.7636 12.34C12.6155 11.8462 13.2835 11.1782 13.7869 10.336C14.2806 9.49374 14.5323 8.57403 14.5323 7.57688C14.5323 6.83143 14.3871 6.12471 14.0967 5.43736C13.8063 4.75 13.4093 4.16913 12.9156 3.6754C12.4219 3.18166 11.8313 2.78474 11.144 2.49431C10.4566 2.20387 9.74989 2.05866 9.00444 2.05866C8.259 2.05866 7.55228 2.20387 6.86492 2.49431C6.17757 2.78474 5.5967 3.18166 5.10296 3.6754C4.60923 4.16913 4.2123 4.75968 3.92187 5.43736C3.61208 6.1344 3.46686 6.84112 3.46686 7.58656ZM4.02836 7.93508V7.23804H6.12916V7.93508H4.02836ZM5.0836 4.50797L5.58702 4.00456L7.05854 5.47608L6.55513 5.98918L5.0836 4.50797ZM7.53292 9.28075C7.53292 8.87415 7.67813 8.52563 7.95889 8.22551C8.23964 7.9254 8.58816 7.7705 8.98508 7.76082L11.628 3.41401L12.267 3.75285L10.3114 8.42881C10.4857 8.67084 10.5631 8.95159 10.5631 9.28075C10.5631 9.70672 10.4179 10.0649 10.1178 10.3554C9.81766 10.6458 9.45946 10.791 9.03349 10.791C8.6172 10.791 8.259 10.6458 7.96857 10.3554C7.67813 10.0649 7.53292 9.70672 7.53292 9.28075ZM8.80114 4.75968V2.66856H9.46914V4.76936H8.80114V4.75968ZM11.6474 7.9254V7.209H13.7482V7.9254H11.6474Z" fill="currentColor"/>
</svg>
