<svg viewBox="0 0 35 35" fill="none" xmlns="http://www.w3.org/2000/svg">
<path d="M0 24.6875C0 25.8594 0.286458 26.9401 0.859375 27.9297C1.43229 28.9193 2.21354 29.7005 3.20312 30.2734C4.19271 30.8464 5.26042 31.1328 6.41927 31.1328H20.5208C21.6797 31.1328 22.7604 30.8464 23.75 30.2734C24.7396 29.7005 25.5339 28.9193 26.1068 27.9297C26.6797 26.9401 26.9792 25.8594 26.9792 24.6875C26.9792 23.8281 26.7969 22.9557 26.4323 22.0833C27.4219 20.8854 27.9167 19.4401 27.9167 17.7865C27.9167 16.862 27.7344 15.9766 27.3828 15.1302C27.0312 14.2839 26.5365 13.5677 25.9245 12.9557C25.3125 12.3437 24.5964 11.849 23.75 11.4974C22.9036 11.1328 22.0182 10.9635 21.0938 10.9635C19.1667 10.9635 17.487 11.7188 16.0417 13.2292C15.0391 12.6562 13.8672 12.3698 12.526 12.3698C10.6901 12.3698 9.07552 12.9427 7.66927 14.0755C6.26302 15.2083 5.35156 16.6667 4.96094 18.4375C3.5026 18.776 2.31771 19.5182 1.39323 20.6901C0.46875 21.862 0 23.1901 0 24.6875ZM2.22656 24.6875C2.22656 23.5937 2.59115 22.6562 3.32031 21.862C4.04948 21.0677 4.96094 20.612 6.05469 20.4818L6.70573 20.4427C6.86198 20.4427 6.95312 20.3646 6.95312 20.2083L7.04427 19.5052C7.22656 18.099 7.83854 16.9141 8.88021 15.9766C9.92188 15.026 11.1458 14.5573 12.5391 14.5573C13.9714 14.5573 15.2214 15.0391 16.276 15.9896C17.3437 16.9401 17.9297 18.112 18.0599 19.5182L18.151 20.2734C18.1771 20.4167 18.2682 20.4948 18.4245 20.4948H20.5208C21.6667 20.4948 22.6562 20.9115 23.4896 21.7448C24.3229 22.5781 24.7396 23.5547 24.7396 24.7005C24.7396 25.8854 24.3229 26.888 23.5026 27.7214C22.6823 28.5547 21.6797 28.9714 20.5339 28.9714H6.41927C5.27344 28.9714 4.29687 28.5547 3.46354 27.7083C2.64323 26.862 2.22656 25.8594 2.22656 24.6875ZM10.9505 8.71094C10.9505 9.02344 11.0547 9.29688 11.263 9.53125L12.1224 10.3646C12.4479 10.612 12.7214 10.7161 12.9557 10.6901C13.2292 10.6901 13.4635 10.5729 13.6719 10.3516C13.8802 10.1302 13.9844 9.85677 13.9844 9.54427C13.9844 9.23177 13.8672 8.97135 13.6458 8.77604L12.8776 7.91667C12.6432 7.70833 12.3828 7.60417 12.0833 7.60417C11.7708 7.60417 11.4974 7.70833 11.276 7.92969C11.0547 8.13802 10.9505 8.39844 10.9505 8.71094ZM17.9036 14.4792C18.8021 13.6068 19.8698 13.1771 21.0938 13.1771C22.3828 13.1771 23.4766 13.6198 24.375 14.5182C25.2734 15.4167 25.7292 16.4974 25.7292 17.7865C25.7292 18.5938 25.5078 19.401 25.0651 20.1823C23.8021 18.9323 22.2917 18.3073 20.5208 18.3073H20.1042C19.7786 16.888 19.0495 15.612 17.9036 14.4792ZM20.026 7.60417C20.026 7.94271 20.1302 8.20312 20.3255 8.41146C20.5208 8.61979 20.7812 8.71094 21.0938 8.71094C21.4323 8.71094 21.6927 8.60677 21.901 8.41146C22.1094 8.20312 22.2005 7.94271 22.2005 7.60417V4.9349C22.2005 4.6224 22.0964 4.375 21.888 4.16667C21.6797 3.95833 21.4193 3.86719 21.0938 3.86719C20.7812 3.86719 20.5339 3.97135 20.3255 4.16667C20.1172 4.36198 20.026 4.6224 20.026 4.9349V7.60417ZM27.2135 10.5859C27.2135 10.9245 27.3047 11.1849 27.5 11.3932C27.7734 11.6016 28.0469 11.7057 28.3073 11.7057C28.5417 11.7057 28.8021 11.6016 29.0755 11.3932L30.9375 9.53125C31.1458 9.29688 31.25 9.02344 31.25 8.69792C31.25 8.38542 31.1458 8.125 30.9375 7.91667C30.7292 7.70833 30.4687 7.60417 30.1693 7.60417C29.8568 7.60417 29.6094 7.70833 29.4141 7.91667L27.5 9.77865C27.3047 10.026 27.2135 10.2865 27.2135 10.5859ZM28.2422 26.0026C28.2422 26.3151 28.3464 26.5885 28.5677 26.8229L29.4141 27.6432C29.6094 27.8516 29.8568 27.9557 30.1693 27.9557C30.4818 27.9557 30.7422 27.8516 30.9505 27.6302C31.1589 27.4089 31.263 27.1484 31.263 26.8229C31.263 26.5365 31.1589 26.276 30.9505 26.0677L30.1042 25.2214C29.8958 25.013 29.6484 24.9089 29.362 24.9089C29.0495 24.9089 28.7891 25.013 28.5807 25.2214C28.3594 25.4297 28.2422 25.6901 28.2422 26.0026ZM30.1562 17.7865C30.1562 18.0859 30.2734 18.3333 30.4948 18.5417C30.7031 18.75 30.9766 18.8542 31.2891 18.8542H33.9453C34.2448 18.8542 34.4922 18.75 34.7005 18.5547C34.9089 18.3594 35 18.099 35 17.7865C35 17.474 34.8958 17.2135 34.7005 17.0052C34.5052 16.7969 34.2448 16.6797 33.9453 16.6797H31.2891C30.9766 16.6797 30.7161 16.7839 30.4948 17.0052C30.2604 17.2266 30.1562 17.487 30.1562 17.7865Z" fill="currentColor"/>
</svg>
