<svg viewBox="0 0 35 35" fill="none" xmlns="http://www.w3.org/2000/svg">
<path d="M0 21.3064C0 19.3694 0.606352 17.6514 1.81906 16.1355C3.03176 14.6197 4.56449 13.6428 6.43407 13.2217C6.95621 10.9142 8.15207 9.02775 9.98797 7.54556C11.8239 6.06336 13.9461 5.32227 16.321 5.32227C18.6453 5.32227 20.717 6.04652 22.5361 7.47819C24.3552 8.90985 25.5342 10.7626 26.0731 13.0196H26.629C28.1449 13.0196 29.5428 13.3901 30.8229 14.1144C32.103 14.8386 33.1304 15.8492 33.8715 17.1293C34.6126 18.4094 35 19.7905 35 21.3064C35 22.7886 34.6463 24.1697 33.9389 25.433C33.2315 26.6962 32.2546 27.7068 31.025 28.4647C29.7955 29.2227 28.4312 29.6269 26.9658 29.6774H8.0847C5.82772 29.5764 3.92445 28.7174 2.35804 27.1004C0.791627 25.5003 0 23.5634 0 21.3064ZM2.88017 21.3064C2.88017 22.7717 3.38547 24.035 4.39605 25.1129C5.40664 26.1909 6.63619 26.7636 8.0847 26.8478H26.9321C28.3807 26.7804 29.6102 26.1909 30.6208 25.1129C31.6482 24.035 32.1535 22.7549 32.1535 21.3064C32.1535 19.8242 31.5977 18.561 30.5029 17.483C29.4081 16.405 28.1112 15.8661 26.5953 15.8661H23.9004C23.7151 15.8661 23.6141 15.765 23.6141 15.5629L23.4962 14.6028C23.3109 12.7838 22.5193 11.251 21.1381 10.0215C19.757 8.79195 18.1569 8.16875 16.321 8.16875C14.4851 8.16875 12.8681 8.79195 11.5207 10.0215C10.1564 11.251 9.38162 12.7838 9.21319 14.6028L9.07844 15.5629C9.07844 15.765 8.96054 15.8661 8.74158 15.8661H7.84889C6.43407 16.0345 5.25505 16.6408 4.31184 17.6683C3.36862 18.6957 2.88017 19.9084 2.88017 21.3064Z" fill="currentColor"/>
</svg>
