<svg viewBox="0 0 18 18" xmlns="http://www.w3.org/2000/svg">
<path d="M14.625 6.74998C14.0452 6.76546 13.4829 6.55058 13.0612 6.15239C12.6395 5.7542 12.3928 5.20514 12.375 4.62542C12.3855 4.21152 12.5129 3.80905 12.7425 3.46448L14.1581 1.35791C14.2125 1.28558 14.283 1.22688 14.364 1.18646C14.445 1.14604 14.5343 1.125 14.6248 1.125C14.7153 1.125 14.8046 1.14604 14.8855 1.18646C14.9665 1.22688 15.037 1.28558 15.0914 1.35791L16.4899 3.43686C16.7288 3.78833 16.8624 4.20066 16.875 4.62542C16.8572 5.20514 16.6105 5.7542 16.1888 6.15239C15.7671 6.55058 15.2048 6.76546 14.625 6.74998ZM14.625 2.67928L13.6934 4.06444C13.577 4.22929 13.5099 4.42386 13.5 4.62542C13.5325 4.90094 13.6651 5.15494 13.8724 5.33925C14.0798 5.52356 14.3476 5.62537 14.625 5.62537C14.9024 5.62537 15.1702 5.52356 15.3776 5.33925C15.5849 5.15494 15.7175 4.90094 15.75 4.62542C15.7374 4.41306 15.6642 4.20877 15.5391 4.03671L14.625 2.67928Z" fill="#349DEA"/>
<path d="M13.2191 16.8751H4.78162C3.87568 16.8757 3.0018 16.5398 2.32956 15.9325C1.65732 15.3251 1.23463 14.4898 1.14353 13.5884C1.05243 12.6871 1.2994 11.784 1.83652 11.0545C2.37365 10.3249 3.16263 9.82093 4.05037 9.64025C4.2898 8.50474 4.91233 7.48606 5.8136 6.75502C6.71486 6.02397 7.84006 5.625 9.00054 5.625C10.161 5.625 11.2862 6.02397 12.1875 6.75502C13.0887 7.48606 13.7113 8.50474 13.9507 9.64025C14.8383 9.82117 15.627 10.3253 16.1639 11.0548C16.7008 11.7843 16.9477 12.6873 16.8565 13.5885C16.7654 14.4897 16.3428 15.3249 15.6707 15.9322C14.9986 16.5395 14.1249 16.8755 13.2191 16.8751ZM9.00037 6.75007C8.03995 6.75092 7.11296 7.10277 6.39385 7.73939C5.67475 8.37602 5.21312 9.25351 5.09583 10.2067L5.04009 10.6636L4.58137 10.6996C3.92957 10.7508 3.32292 11.0524 2.88867 11.5412C2.45443 12.0299 2.22633 12.6679 2.25223 13.3212C2.27814 13.9745 2.55603 14.5923 3.02761 15.0452C3.49919 15.498 4.12782 15.7507 4.78162 15.7501H13.2191C13.8729 15.7507 14.5016 15.4981 14.9732 15.0453C15.4449 14.5925 15.7228 13.9746 15.7487 13.3213C15.7747 12.668 15.5466 12.03 15.1123 11.5412C14.6781 11.0524 14.0714 10.7508 13.4196 10.6996L12.9609 10.6636L12.9055 10.2067C12.7879 9.25353 12.3261 8.3761 11.607 7.73952C10.8878 7.10293 9.96081 6.75105 9.00037 6.75007Z" fill="currentColor"/>
</svg>
