<svg viewBox="0 0 35 35" fill="none" xmlns="http://www.w3.org/2000/svg">
<path d="M0 16.5543C0 14.6127 0.607815 12.8906 1.82344 11.371C3.03907 9.85149 4.57549 8.88911 6.43271 8.45014C6.9561 6.15395 8.15485 4.26297 9.99518 2.7772C11.8355 1.29143 13.946 0.56543 16.3266 0.56543C18.6565 0.56543 20.7164 1.29143 22.5398 2.72655C24.3632 4.16167 25.5451 6.01888 26.0854 8.2813H26.6257C28.1283 8.2813 29.5297 8.65274 30.8128 9.37874C32.096 10.1047 33.1259 11.1178 33.8688 12.384C34.6117 13.6503 35 15.0517 35 16.5543C35 18.0401 34.6454 19.4077 33.9363 20.674C33.2272 21.9402 32.2479 22.9533 31.0154 23.713C29.7829 24.4728 28.4322 24.878 26.9633 24.9118C26.7438 24.9118 26.6257 24.8105 26.6257 24.6248V22.3792C26.6257 22.1766 26.7438 22.0753 26.9633 22.0753C28.3985 22.0078 29.631 21.4337 30.644 20.3532C31.657 19.2726 32.1635 18.0063 32.1635 16.5374C32.1635 15.0686 31.6064 13.8023 30.5089 12.7217C29.4115 11.6412 28.1114 11.1009 26.6088 11.1009H23.8905C23.6879 11.1009 23.5866 10.9996 23.5866 10.8139L23.4515 9.8346C23.2658 8.01116 22.4723 6.47474 21.1047 5.25911C19.7202 4.0266 18.1331 3.41878 16.2928 3.41878C14.4525 3.41878 12.8316 4.0266 11.4809 5.25911C10.1134 6.49162 9.35359 8.01116 9.18476 9.8346L9.06657 10.7294C9.06657 10.932 8.94838 11.0502 8.7289 11.0502L7.83406 11.1009C6.43271 11.2697 5.25084 11.8775 4.28847 12.9074C3.3261 13.9374 2.85335 15.153 2.85335 16.5543C2.85335 18.0232 3.35986 19.2895 4.37289 20.3701C5.38591 21.4506 6.61843 22.0247 8.05354 22.0922C8.23927 22.0922 8.34057 22.1935 8.34057 22.3961V24.6416C8.34057 24.8274 8.23927 24.9287 8.05354 24.9287C5.79112 24.8274 3.88326 23.9663 2.31307 22.3455C0.742885 20.7246 0 18.7999 0 16.5543ZM9.0328 27.8496C9.0328 27.782 9.04969 27.6638 9.10034 27.5119L11.8524 17.77C11.9537 17.4492 12.1394 17.1959 12.3927 17.0271C12.6459 16.8582 12.9161 16.7738 13.1693 16.7738C13.2875 16.7738 13.4226 16.7907 13.5745 16.8245C13.9797 16.892 14.2836 17.1115 14.4862 17.4492C14.6889 17.7868 14.7395 18.1583 14.6213 18.5804L11.8693 28.2548C11.6667 28.9808 11.1939 29.3353 10.4848 29.3353C10.4173 29.3353 10.3666 29.3184 10.2991 29.3016C10.1978 29.2678 10.1471 29.2509 10.1302 29.2509C9.7588 29.1496 9.48866 28.9639 9.30294 28.6937C9.11722 28.4067 9.0328 28.1366 9.0328 27.8496ZM13.4563 32.5939L17.576 17.7868C17.6435 17.4661 17.8123 17.2128 18.0825 17.044C18.3526 16.8751 18.6228 16.7907 18.9098 16.7907C19.0617 16.7907 19.2137 16.8076 19.3657 16.8414C19.7371 16.9427 20.0072 17.1621 20.193 17.4998C20.3787 17.8375 20.4124 18.1921 20.3111 18.5804L16.2084 33.4043C16.1409 33.6913 15.9889 33.9277 15.7188 34.1303C15.4486 34.3329 15.1785 34.4342 14.8577 34.4342C14.7057 34.4342 14.5538 34.4004 14.4356 34.3498C14.0979 34.2654 13.8109 34.0459 13.5576 33.6913C13.3719 33.3874 13.3382 33.0329 13.4563 32.5939ZM20.4293 27.8833C20.4293 27.8158 20.4462 27.6976 20.4969 27.495L23.2489 17.7531C23.3502 17.4323 23.5191 17.179 23.7554 17.0102C24.0087 16.8414 24.2619 16.7569 24.5321 16.7569C24.6671 16.7569 24.8191 16.7738 24.9711 16.8076C25.3256 16.9089 25.5789 17.0777 25.7477 17.331C25.9165 17.5842 26.001 17.8544 26.001 18.1245C26.001 18.1752 25.9841 18.2596 25.9672 18.3609C25.9503 18.4622 25.9334 18.5297 25.9334 18.5635L23.1814 28.2379C23.1138 28.5587 22.9619 28.8288 22.7086 29.0145C22.4554 29.2003 22.1684 29.3016 21.8476 29.3016L21.4424 29.2171C21.1047 29.1158 20.8514 28.947 20.6657 28.6769C20.5137 28.4236 20.4293 28.1535 20.4293 27.8833Z" fill="currentColor"/>
</svg>
