<svg viewBox="0 0 35 35" fill="none" xmlns="http://www.w3.org/2000/svg">
<path d="M0 16.6716C0 14.7111 0.591502 12.9873 1.7914 11.4663C2.99131 9.94534 4.52921 8.96513 6.42202 8.49193C6.94592 6.19352 8.12892 4.30072 9.97103 2.81352C11.8131 1.32631 13.9256 0.599609 16.3085 0.599609C18.6408 0.599609 20.7026 1.32631 22.5278 2.76282C24.353 4.19932 25.536 6.05832 26.0768 8.32293H26.6176C28.1217 8.32293 29.5244 8.69473 30.8088 9.43833C32.0932 10.1819 33.1241 11.1959 33.8677 12.4803C34.6113 13.7647 35 15.1674 35 16.6716C35 18.9024 34.2226 20.8459 32.6509 22.4514C31.0961 24.0738 29.1864 24.9188 26.9387 24.9864C26.719 24.9864 26.6007 24.885 26.6007 24.6991V22.4514C26.6007 22.2486 26.719 22.1472 26.9387 22.1472C28.3752 22.0796 29.6089 21.505 30.6229 20.4234C31.6369 19.3418 32.1439 18.0912 32.1439 16.6547C32.1439 15.1505 31.6031 13.8661 30.5046 12.7676C29.4061 11.6691 28.1048 11.1283 26.5838 11.1283H23.8629C23.6601 11.1283 23.5587 11.0269 23.5587 10.841L23.4235 9.86084C23.2376 8.03563 22.4433 6.49773 21.0744 5.26402C19.6886 4.03032 18.1 3.40502 16.2578 3.40502C14.3988 3.40502 12.7933 4.03032 11.4244 5.28092C10.0555 6.53153 9.27813 8.06943 9.10913 9.92844L9.00773 10.7734C9.00773 10.9762 8.88943 11.0945 8.66973 11.0945L7.77402 11.2128C6.37132 11.3311 5.18831 11.9057 4.22501 12.9704C3.26171 14.0351 2.78851 15.252 2.78851 16.6716C2.78851 18.1081 3.29551 19.3587 4.30951 20.4403C5.32352 21.5219 6.55722 22.0796 7.99372 22.1641C8.17962 22.1641 8.28102 22.2655 8.28102 22.4683V24.716C8.28102 24.9019 8.17962 25.0033 7.99372 25.0033C5.72912 24.9357 3.81941 24.0907 2.24771 22.4683C0.777402 20.8459 0 18.9024 0 16.6716ZM10.7484 23.5499C10.7484 23.1781 10.8836 22.8401 11.154 22.5697C11.4244 22.2993 11.7455 22.1641 12.1511 22.1641C12.5398 22.1641 12.8778 22.2993 13.1482 22.5697C13.4186 22.8401 13.5538 23.1781 13.5538 23.5499C13.5538 23.9555 13.4186 24.2935 13.1482 24.5639C12.8778 24.8512 12.5567 24.9864 12.1511 24.9864C11.7624 24.9864 11.4244 24.8512 11.154 24.5639C10.8836 24.2935 10.7484 23.9555 10.7484 23.5499ZM10.7484 29.6846C10.7484 29.279 10.8836 28.941 11.154 28.6706C11.4244 28.4171 11.7455 28.2819 12.1342 28.2819C12.5229 28.2819 12.8609 28.4171 13.1313 28.6706C13.4017 28.941 13.5369 29.2621 13.5369 29.6677C13.5369 30.0733 13.4017 30.3944 13.1313 30.6648C12.8609 30.9352 12.5398 31.0535 12.1342 31.0535C11.7455 31.0535 11.4075 30.9183 11.1371 30.6648C10.8836 30.4113 10.7484 30.0733 10.7484 29.6846ZM16.1395 26.8116C16.1395 26.4229 16.2747 26.068 16.562 25.7638C16.8324 25.4934 17.1535 25.3582 17.5254 25.3582C17.9141 25.3582 18.2521 25.5103 18.5394 25.7976C18.8267 26.0849 18.9788 26.4229 18.9788 26.8116C18.9788 27.2003 18.8436 27.5383 18.5563 27.8256C18.2689 28.1129 17.931 28.2481 17.5254 28.2481C17.1367 28.2481 16.8155 28.1129 16.5451 27.8256C16.2747 27.5383 16.1395 27.2003 16.1395 26.8116ZM16.1395 20.6938C16.1395 20.3051 16.2747 19.9671 16.562 19.6798C16.8662 19.4094 17.1873 19.2742 17.5254 19.2742C17.931 19.2742 18.2689 19.4094 18.5563 19.6967C18.8436 19.984 18.9788 20.3051 18.9788 20.7107C18.9788 21.0994 18.8436 21.4374 18.5563 21.7078C18.2689 21.9782 17.931 22.1134 17.5254 22.1134C17.1367 22.1134 16.8155 21.9782 16.5451 21.7078C16.2747 21.4205 16.1395 21.0825 16.1395 20.6938ZM16.1395 32.997C16.1395 32.6083 16.2747 32.2703 16.562 31.9661C16.8324 31.6957 17.1535 31.5605 17.5254 31.5605C17.931 31.5605 18.2689 31.6957 18.5563 31.983C18.8436 32.2703 18.9788 32.6083 18.9788 32.997C18.9788 33.3857 18.8436 33.7237 18.5563 33.9941C18.2689 34.2645 17.931 34.3997 17.5254 34.3997C17.1367 34.3997 16.8155 34.2645 16.5451 33.9941C16.2747 33.7068 16.1395 33.3857 16.1395 32.997ZM21.5814 23.5499C21.5814 23.1781 21.7166 22.857 22.0039 22.5697C22.2912 22.2824 22.6292 22.1472 23.0179 22.1472C23.4066 22.1472 23.7446 22.2824 24.015 22.5528C24.2854 22.8232 24.4206 23.1612 24.4206 23.533C24.4206 23.9386 24.2854 24.2766 24.015 24.547C23.7446 24.8343 23.4235 24.9695 23.0179 24.9695C22.6123 24.9695 22.2743 24.8343 22.0039 24.547C21.7335 24.2766 21.5814 23.9386 21.5814 23.5499ZM21.5814 29.6846C21.5814 29.3128 21.7166 28.9748 22.0039 28.6706C22.2743 28.4171 22.6123 28.2819 23.0179 28.2819C23.4235 28.2819 23.7446 28.4171 24.015 28.6706C24.2854 28.9241 24.4037 29.2621 24.4037 29.6677C24.4037 30.0733 24.2685 30.3944 24.015 30.6648C23.7446 30.9352 23.4235 31.0535 23.0179 31.0535C22.6123 31.0535 22.2743 30.9183 22.0039 30.6479C21.7335 30.3944 21.5814 30.0733 21.5814 29.6846Z" fill="currentColor"/>
</svg>
