<svg viewBox="0 0 35 35" fill="none" xmlns="http://www.w3.org/2000/svg">
<path d="M0 16.4612C0 18.3362 0.557432 20.0085 1.6723 21.4781C2.78716 22.9477 4.22297 23.9612 5.99662 24.5017L4.89865 27.3396C4.84797 27.576 4.93243 27.7112 5.13513 27.7112H8.73311L6.97635 34.0963H7.44932L14.1554 25.2787C14.223 25.2112 14.223 25.1267 14.1892 25.0423C14.1554 24.9578 14.0709 24.924 13.9527 24.924H10.2703L14.4595 17.0862C14.5608 16.8497 14.4932 16.7314 14.223 16.7314H9.25676C9.10473 16.7314 8.96959 16.8159 8.88513 16.9679L7.04392 21.8159C5.84459 21.5119 4.84797 20.8531 4.05405 19.8564C3.26014 18.8598 2.87162 17.7281 2.87162 16.4612C2.87162 15.0591 3.34459 13.8429 4.29054 12.8125C5.23649 11.7821 6.41892 11.1909 7.83784 11.022L8.71622 10.9037C8.93581 10.9037 9.05405 10.8024 9.05405 10.6166L9.1723 9.7382C9.34122 7.91388 10.1014 6.37672 11.4696 5.14361C12.8378 3.9105 14.4426 3.2855 16.2838 3.2855C18.125 3.2855 19.7297 3.9105 21.098 5.14361C22.4831 6.37672 23.2601 7.91388 23.4628 9.7382L23.5642 10.7179C23.5642 10.9206 23.6655 11.022 23.8851 11.022H26.6047C28.1419 11.022 29.4426 11.5625 30.5236 12.6267C31.6047 13.6909 32.1453 14.9747 32.1453 16.4781C32.1453 17.9139 31.6385 19.1639 30.6419 20.2112C29.6453 21.2585 28.4122 21.8328 26.9426 21.951C26.723 21.951 26.6047 22.0524 26.6047 22.272V24.5862C26.6047 24.772 26.723 24.8733 26.9426 24.8733C28.0405 24.8396 29.0878 24.5862 30.0845 24.1301C31.0811 23.674 31.9426 23.0659 32.652 22.3227C33.3615 21.5794 33.9358 20.701 34.3581 19.6706C34.7804 18.6571 35 17.5929 35 16.495C35 14.9747 34.6284 13.5727 33.8682 12.2889C33.1081 11.0051 32.0946 9.99158 30.8108 9.24834C29.527 8.50509 28.125 8.13347 26.6216 8.13347H26.0811C25.5236 5.88685 24.3412 4.04563 22.5169 2.62672C20.6926 1.2078 18.6318 0.481445 16.3007 0.481445C13.9189 0.481445 11.7905 1.22469 9.94932 2.69428C8.10811 4.16388 6.92567 6.05577 6.40203 8.36996C4.54392 8.80915 3.00676 9.77199 1.79054 11.2923C0.574324 12.8125 0 14.5186 0 16.4612ZM13.7838 33.1166C13.7838 33.3868 13.8682 33.6402 14.0372 33.8936C14.2061 34.147 14.4763 34.3328 14.8142 34.4341C15.0507 34.4848 15.1858 34.5186 15.2365 34.5186C15.3885 34.5186 15.5912 34.4679 15.8784 34.3497C16.2331 34.1977 16.4696 33.8936 16.5878 33.4713L17.0608 31.6977C17.1622 31.326 17.1284 30.9713 16.9257 30.6335C16.723 30.2956 16.4358 30.076 16.0304 29.9578C15.6588 29.8564 15.3041 29.8902 14.9662 30.0929C14.6284 30.2956 14.3919 30.5828 14.2736 30.9882L13.8176 32.6774C13.8007 32.9646 13.7838 33.1166 13.7838 33.1166ZM16.0473 25.0591C16.0473 25.2956 16.1318 25.549 16.3007 25.8024C16.4696 26.0558 16.723 26.2416 17.0608 26.3598C17.4324 26.4781 17.8041 26.4612 18.1419 26.2754C18.4797 26.0896 18.6993 25.8024 18.8176 25.397L19.3243 23.6402C19.4257 23.2686 19.375 22.9139 19.1892 22.576C18.9865 22.2382 18.6824 22.0017 18.2939 21.8835C17.9054 21.7821 17.5507 21.8159 17.1959 22.0186C16.8412 22.2213 16.6216 22.5085 16.5034 22.897L16.098 24.6031C16.0642 24.8902 16.0473 25.0423 16.0473 25.0591ZM20.8108 27.8463C20.8108 28.1335 20.8953 28.4206 21.0811 28.7078C21.2669 28.995 21.5372 29.1808 21.875 29.299C21.9088 29.299 21.9764 29.3159 22.0777 29.3328C22.1622 29.3497 22.2297 29.3666 22.2804 29.3666C22.5 29.3666 22.7196 29.3328 22.9223 29.2314C23.2432 29.1132 23.4797 28.7923 23.6149 28.2686L24.0372 26.5625C24.1554 26.174 24.1216 25.8024 23.9358 25.4477C23.75 25.0929 23.4628 24.8564 23.0912 24.7382C22.6689 24.6368 22.2804 24.6875 21.9426 24.8733C21.6047 25.076 21.3851 25.3801 21.3176 25.7686L20.8615 27.5085C20.8277 27.6098 20.8108 27.7281 20.8108 27.8463ZM23.1081 19.7551C23.0912 20.0254 23.1757 20.2787 23.3615 20.549C23.5473 20.8193 23.8176 21.022 24.1892 21.1909C24.3243 21.2585 24.4595 21.2923 24.6284 21.2923C24.8142 21.2923 25 21.2416 25.2027 21.1571C25.5574 20.9882 25.7939 20.6673 25.9459 20.1943L26.4358 18.4544C26.4696 18.2348 26.4865 18.1166 26.4865 18.0828C26.4865 17.7956 26.402 17.5254 26.2162 17.2551C26.0304 16.9848 25.7601 16.799 25.3885 16.6977C25.3547 16.6977 25.2872 16.6808 25.2027 16.6639C25.1013 16.6132 25.0338 16.6132 24.9831 16.6132C24.6959 16.6132 24.4257 16.6977 24.1554 16.8666C23.8851 17.0355 23.6993 17.3058 23.598 17.6774L23.1419 19.3835C23.125 19.5186 23.1081 19.6369 23.1081 19.7551Z" fill="currentColor"/>
</svg>
