<svg viewBox="0 0 35 35" fill="none" xmlns="http://www.w3.org/2000/svg">
<path d="M0.015625 17.4835C0.015625 17.0884 0.147328 16.7427 0.427196 16.4628C0.707064 16.1994 1.05278 16.0677 1.41497 16.0677H4.77339C5.15203 16.0677 5.46483 16.1994 5.72823 16.4793C5.97517 16.7592 6.10688 17.0884 6.10688 17.4835C6.10688 17.8786 5.99164 18.2079 5.74469 18.4878C5.49775 18.7676 5.16849 18.8993 4.78985 18.8993H1.43143C1.05278 18.8993 0.723527 18.7676 0.443659 18.4878C0.163791 18.2079 0.015625 17.8786 0.015625 17.4835ZM4.724 28.8923C4.724 28.5136 4.8557 28.1844 5.10264 27.8881L7.52268 25.5339C7.76962 25.2705 8.09888 25.1552 8.49399 25.1552C8.8891 25.1552 9.21835 25.2869 9.48176 25.5339C9.74516 25.7808 9.87687 26.0936 9.87687 26.4722C9.87687 26.8674 9.74516 27.2295 9.48176 27.5259L7.14403 29.8636C6.46906 30.3904 5.79408 30.3904 5.11911 29.8636C4.8557 29.6002 4.724 29.2709 4.724 28.8923ZM4.724 6.10771C4.724 5.72907 4.8557 5.39981 5.10264 5.10348C5.4319 4.82361 5.77762 4.69191 6.15627 4.69191C6.51845 4.69191 6.8477 4.82361 7.12757 5.08702L9.48176 7.50706C9.74516 7.754 9.87687 8.08325 9.87687 8.47836C9.87687 8.87347 9.74516 9.20273 9.48176 9.46613C9.21835 9.72954 8.8891 9.86124 8.49399 9.86124C8.09888 9.86124 7.76962 9.72954 7.52268 9.46613L5.11911 7.11195C4.8557 6.84854 4.724 6.50282 4.724 6.10771ZM8.92202 17.4835C8.92202 15.9525 9.30067 14.5202 10.0744 13.2032C10.8482 11.8862 11.8853 10.8325 13.2188 10.0588C14.5523 9.28504 15.9681 8.9064 17.4992 8.9064C18.6516 8.9064 19.7546 9.13688 20.8247 9.59784C21.8783 10.0588 22.8002 10.6679 23.5575 11.4417C24.3312 12.2154 24.9404 13.1209 25.3849 14.1745C25.8294 15.2281 26.0598 16.3476 26.0598 17.5C26.0598 19.0475 25.6812 20.4798 24.9074 21.7968C24.1337 23.1138 23.0965 24.151 21.7795 24.9247C20.4625 25.6985 19.0302 26.0771 17.4827 26.0771C15.9352 26.0771 14.5029 25.6985 13.1859 24.9247C11.8689 24.151 10.8317 23.1138 10.058 21.7968C9.31713 20.4633 8.92202 19.031 8.92202 17.4835ZM11.7207 17.4835C11.7207 19.0969 12.2804 20.4633 13.4164 21.5992C14.5359 22.7352 15.9023 23.3114 17.5156 23.3114C19.129 23.3114 20.4954 22.7352 21.6313 21.5992C22.7673 20.4633 23.3435 19.0969 23.3435 17.4835C23.3435 15.9031 22.7673 14.5532 21.6313 13.4172C20.4954 12.2977 19.129 11.738 17.5156 11.738C15.9187 11.738 14.5523 12.2977 13.4328 13.4172C12.2804 14.5532 11.7207 15.9031 11.7207 17.4835ZM16.0998 30.2916C16.0998 29.8965 16.2315 29.5673 16.5114 29.3039C16.7913 29.0405 17.1205 28.9087 17.4992 28.9087C17.8943 28.9087 18.24 29.0405 18.5034 29.3039C18.7668 29.5673 18.8985 29.8965 18.8985 30.2916V33.5677C18.8985 33.9628 18.7668 34.3086 18.4869 34.5884C18.2071 34.8683 17.8778 35 17.4992 35C17.1205 35 16.7748 34.8683 16.5114 34.5884C16.2315 34.3086 16.0998 33.9628 16.0998 33.5677V30.2916ZM16.0998 4.77422V1.4158C16.0998 1.03716 16.2315 0.707903 16.5114 0.428034C16.7913 0.148166 17.1205 0 17.5156 0C17.9107 0 18.2235 0.131703 18.5034 0.411571C18.7833 0.691439 18.915 1.0207 18.915 1.39934V4.77422C18.915 5.15287 18.7833 5.46566 18.5034 5.72907C18.2235 5.99247 17.8943 6.10771 17.5156 6.10771C17.137 6.10771 16.7913 5.97601 16.5279 5.72907C16.2644 5.48213 16.0998 5.15287 16.0998 4.77422ZM25.1873 26.4722C25.1873 26.0936 25.319 25.7808 25.566 25.5503C25.8129 25.2869 26.1257 25.1717 26.4879 25.1717C26.883 25.1717 27.2122 25.3034 27.4756 25.5503L29.8792 27.9045C30.1426 28.1844 30.2743 28.5301 30.2743 28.9087C30.2743 29.2874 30.1426 29.6166 29.8792 29.8801C29.2207 30.3904 28.5622 30.3904 27.9037 29.8801L25.566 27.5423C25.319 27.246 25.1873 26.9003 25.1873 26.4722ZM25.1873 8.49483C25.1873 8.08325 25.319 7.754 25.566 7.52352L27.9037 5.10348C28.1835 4.84008 28.5128 4.70837 28.875 4.70837C29.2701 4.70837 29.5993 4.84008 29.8628 5.11994C30.1426 5.39981 30.2743 5.72907 30.2743 6.10771C30.2743 6.51929 30.1426 6.865 29.8792 7.12841L27.4756 9.4826C27.1793 9.746 26.8501 9.8777 26.4879 9.8777C26.1092 9.8777 25.8129 9.746 25.566 9.4826C25.319 9.21919 25.1873 8.88993 25.1873 8.49483ZM28.9079 17.4835C28.9079 17.0884 29.0396 16.7592 29.303 16.4628C29.5664 16.1994 29.8792 16.0677 30.2414 16.0677H33.5669C33.9455 16.0677 34.2748 16.2159 34.5547 16.4958C34.8345 16.7756 34.9827 17.1049 34.9827 17.4835C34.9827 17.8622 34.8345 18.1914 34.5547 18.4713C34.2748 18.7512 33.9455 18.8829 33.5669 18.8829H30.2414C29.8628 18.8829 29.5335 18.7512 29.2866 18.4713C29.0396 18.1914 28.9079 17.8786 28.9079 17.4835Z" fill="currentColor"/>
</svg>
