<svg viewBox="0 0 14 14" xmlns="http://www.w3.org/2000/svg">
<g>
<path d="M7.38759 9.73162V5.17773H6.60981V9.74329C6.35034 9.83503 6.13165 10.0155 5.9924 10.2529C5.85315 10.4903 5.8023 10.7693 5.84884 11.0405C5.89537 11.3118 6.03631 11.5578 6.24672 11.7352C6.45714 11.9126 6.72349 12.0099 6.9987 12.0099C7.27391 12.0099 7.54026 11.9126 7.75068 11.7352C7.9611 11.5578 8.10203 11.3118 8.14857 11.0405C8.1951 10.7693 8.14425 10.4903 8.005 10.2529C7.86575 10.0155 7.64706 9.83503 7.38759 9.74329V9.73162Z" fill="#349DEA"/>
<path d="M11.1097 6.55556C11.2128 6.55556 11.3117 6.51458 11.3847 6.44165C11.4576 6.36872 11.4986 6.26981 11.4986 6.16667C11.4986 6.06353 11.4576 5.96461 11.3847 5.89168C11.3117 5.81875 11.2128 5.77778 11.1097 5.77778H9.30079V5H11.1097C11.2128 5 11.3117 4.95903 11.3847 4.8861C11.4576 4.81317 11.4986 4.71425 11.4986 4.61111C11.4986 4.50797 11.4576 4.40906 11.3847 4.33613C11.3117 4.26319 11.2128 4.22222 11.1097 4.22222H9.30079V3.83333C9.30079 3.21449 9.05495 2.621 8.61737 2.18342C8.17978 1.74583 7.58629 1.5 6.96745 1.5C6.34861 1.5 5.75512 1.74583 5.31754 2.18342C4.87995 2.621 4.63412 3.21449 4.63412 3.83333V8.815C4.24574 9.27061 3.99706 9.82861 3.91792 10.422C3.83879 11.0155 3.93256 11.6191 4.18798 12.1606C4.44341 12.7021 4.84963 13.1583 5.35792 13.4746C5.86622 13.791 6.45498 13.9539 7.05358 13.9439C7.65218 13.934 8.23519 13.7515 8.73266 13.4184C9.23013 13.0853 9.62092 12.6158 9.85816 12.0661C10.0954 11.5164 10.169 10.91 10.0701 10.3195C9.97127 9.72904 9.70413 9.17964 9.30079 8.73722V8.11111H11.1097C11.2128 8.11111 11.3117 8.07014 11.3847 7.99721C11.4576 7.92428 11.4986 7.82536 11.4986 7.72222C11.4986 7.61908 11.4576 7.52017 11.3847 7.44724C11.3117 7.3743 11.2128 7.33333 11.1097 7.33333H9.30079V6.55556H11.1097ZM9.3319 10.8333C9.33202 11.2143 9.23885 11.5895 9.06053 11.9262C8.88222 12.2629 8.62417 12.5508 8.30894 12.7647C7.99371 12.9787 7.63088 13.1122 7.25216 13.1536C6.87343 13.195 6.49033 13.143 6.13632 13.0023C5.7823 12.8615 5.46815 12.6361 5.22129 12.346C4.97444 12.0558 4.80239 11.7095 4.72019 11.3375C4.63799 10.9655 4.64813 10.5791 4.74972 10.2119C4.85132 9.84468 5.04128 9.50796 5.30301 9.23111L5.40801 9.11833V3.83333C5.40801 3.42077 5.5719 3.02511 5.86362 2.73339C6.15534 2.44167 6.551 2.27778 6.96356 2.27778C7.37612 2.27778 7.77178 2.44167 8.06351 2.73339C8.35523 3.02511 8.51912 3.42077 8.51912 3.83333V9.06L8.63579 9.17278C8.85602 9.38966 9.03097 9.64814 9.15047 9.9332C9.26997 10.2183 9.33164 10.5242 9.3319 10.8333Z" fill="currentColor"/>
</g>
</svg>
