<svg viewBox="0 0 14 14" fill="none" xmlns="http://www.w3.org/2000/svg">
<g>
<path d="M1.15039 3.10059H2.45039H12.8504" stroke="currentColor" stroke-linecap="round" stroke-linejoin="round"/>
<path d="M4.39922 3.1V1.8C4.39922 1.45522 4.53618 1.12456 4.77998 0.880761C5.02378 0.636964 5.35444 0.5 5.69922 0.5H8.29922C8.644 0.5 8.97466 0.636964 9.21846 0.880761C9.46226 1.12456 9.59922 1.45522 9.59922 1.8V3.1M11.5492 3.1V12.2C11.5492 12.5448 11.4123 12.8754 11.1685 13.1192C10.9247 13.363 10.594 13.5 10.2492 13.5H3.74922C3.40444 13.5 3.07378 13.363 2.82998 13.1192C2.58618 12.8754 2.44922 12.5448 2.44922 12.2V3.1H11.5492Z" stroke="currentColor" stroke-linecap="round" stroke-linejoin="round"/>
<path d="M5.69922 6.35059V10.2506" stroke="currentColor" stroke-linecap="round" stroke-linejoin="round"/>
<path d="M8.29883 6.35059V10.2506" stroke="currentColor" stroke-linecap="round" stroke-linejoin="round"/>
</g>
</svg>
