<svg viewBox="0 0 18 18" xmlns="http://www.w3.org/2000/svg">
<path d="M0 10.2443C0 10.4258 0.0680674 10.5846 0.211765 10.7132C0.332773 10.8569 0.491597 10.9249 0.688236 10.9249H11.7983C12.0176 10.9249 12.1992 11.0006 12.3504 11.1518C12.5017 11.3031 12.5773 11.4922 12.5773 11.7115C12.5773 11.9308 12.5017 12.1123 12.3504 12.256C12.1992 12.3997 12.0176 12.4754 11.7908 12.4754C11.5714 12.4754 11.3824 12.3997 11.2387 12.256C11.1176 12.1199 10.9664 12.0594 10.7849 12.0594C10.5958 12.0594 10.437 12.1275 10.3008 12.256C10.1647 12.3846 10.0966 12.5434 10.0966 12.7174C10.0966 12.9064 10.1647 13.0653 10.3084 13.1938C10.7319 13.6098 11.2311 13.8216 11.7908 13.8216C12.3807 13.8216 12.8874 13.6174 13.3109 13.209C13.7345 12.8006 13.9387 12.309 13.9387 11.719C13.9387 11.1291 13.7269 10.63 13.3034 10.2064C12.8798 9.78291 12.3731 9.57115 11.7908 9.57115H0.688236C0.49916 9.57115 0.340336 9.63922 0.204202 9.76779C0.0680672 9.89636 0 10.0552 0 10.2443ZM0 7.76359C0 7.93753 0.0680674 8.0888 0.211765 8.22493C0.340336 8.36106 0.49916 8.42157 0.688236 8.42157H15.8445C16.4345 8.42157 16.9412 8.21737 17.3647 7.8014C17.7882 7.393 18 6.89384 18 6.31148C18 5.72913 17.7882 5.22241 17.3647 4.80644C16.9412 4.39048 16.4345 4.17871 15.8445 4.17871C15.2622 4.17871 14.7706 4.38291 14.3697 4.78375C14.2336 4.90476 14.1655 5.07115 14.1655 5.29048C14.1655 5.48711 14.2336 5.64594 14.3622 5.76695C14.4908 5.88796 14.6496 5.94846 14.8387 5.94846C15.0202 5.94846 15.179 5.88796 15.3151 5.76695C15.4588 5.60812 15.6328 5.53249 15.8445 5.53249C16.0639 5.53249 16.2454 5.60812 16.3966 5.75938C16.5479 5.91064 16.6235 6.09216 16.6235 6.31148C16.6235 6.53081 16.5479 6.71232 16.3966 6.85602C16.2454 6.99972 16.0639 7.07535 15.8445 7.07535H0.688236C0.49916 7.07535 0.340336 7.14342 0.204202 7.27199C0.0680672 7.41569 0 7.57451 0 7.76359Z" fill="currentColor"/>
</svg>
