<svg width="14" height="6" viewBox="0 0 14 6" fill="none" xmlns="http://www.w3.org/2000/svg">
<path d="M1.35351 2.52148H11.4875L9.80874 0.850888C9.62142 0.664459 9.6207 0.361487 9.80713 0.174172C9.99356 -0.0131667 10.2966 -0.0138604 10.4839 0.172545L12.9842 2.66082C12.9844 2.66097 12.9845 2.66114 12.9846 2.66128C13.1715 2.84771 13.1721 3.15166 12.9847 3.33871C12.9845 3.33886 12.9844 3.33902 12.9843 3.33917L10.4839 5.82745C10.2966 6.01383 9.99363 6.01318 9.80718 5.82582C9.62075 5.6385 9.62147 5.33553 9.80878 5.1491L11.4875 3.47851H1.35351C1.08923 3.47851 0.875 3.26428 0.875 3C0.875 2.73571 1.08923 2.52148 1.35351 2.52148Z" fill="white"/>
</svg>
