<svg width="20" height="20" viewBox="0 0 20 20"  xmlns="http://www.w3.org/2000/svg">
<g>
<path d="M9.99993 15.5555C8.77262 15.5555 7.77769 16.5505 7.77769 17.7778C7.77769 19.0051 8.77262 20 9.99993 20C11.2272 20 12.2222 19.0051 12.2222 17.7778C12.2222 16.5505 11.2272 15.5555 9.99993 15.5555Z"/>
<path d="M9.99993 7.77769C8.77262 7.77769 7.77769 8.77262 7.77769 9.99993C7.77769 11.2272 8.77262 12.2222 9.99993 12.2222C11.2272 12.2222 12.2222 11.2272 12.2222 9.99993C12.2222 8.77262 11.2272 7.77769 9.99993 7.77769Z" />
<path d="M9.99993 -0.000114247C8.77262 -0.000114139 7.77769 0.99481 7.77769 2.22211C7.77769 3.44941 8.77262 4.44434 9.99993 4.44434C11.2272 4.44434 12.2222 3.44941 12.2222 2.22211C12.2222 0.994809 11.2272 -0.000114354 9.99993 -0.000114247Z" />
</g>
</svg>
